<?xml version="1.0" encoding="utf-8"?>
<svg width="43px" height="43px" viewBox="0 0 43 43" version="1.1" xmlns:xlink="http://www.w3.org/1999/xlink" xmlns="http://www.w3.org/2000/svg">
  <defs>
    <path d="M0 0L30 0L30 30L0 30L0 0Z" transform="matrix(0.9999996 8.85084E-07 -8.85084E-07 0.9999996 3.8146973E-05 0)" id="path_1" />
    <clipPath id="mask_1">
      <use xlink:href="#path_1" />
    </clipPath>
  </defs>
  <g id="svg" transform="matrix(0.70710725 -0.70710635 0.70710635 0.70710725 0 21.213196)">
    <path d="M0 0L30 0L30 30L0 30L0 0Z" transform="matrix(0.9999996 8.85084E-07 -8.85084E-07 0.9999996 3.8146973E-05 0)" id="Background" fill="none" fill-rule="evenodd" stroke="none" />
    <g clip-path="url(#mask_1)">
      <path d="M2.6775 1.9635L4.641 0L8.469 3.33375L6.267 5.53575L0 8.21175L2.6775 1.9635Z" transform="matrix(0.9999996 8.85084E-07 -8.85084E-07 0.9999996 1.8382263 19.94925)" id="Shape" fill="#DFF0FE" fill-rule="evenodd" stroke="none" />
      <path d="M5.37209 1.02518L8.63298 3.86536L6.76554 5.73282L1.42647 8.01353L3.70639 2.69164L5.37209 1.02518M5.33682 6.14311e-12L3.07414 2.2627L-7.62941e-06 9.43779L7.19376 6.36586L9.73168 3.82791L5.33682 6.14311e-12L5.33682 6.14311e-12L5.33682 6.14311e-12Z" transform="matrix(0.9999996 8.85084E-07 -8.85084E-07 0.9999996 1.1249542 19.436218)" id="Shape" fill="#4788C7" fill-rule="evenodd" stroke="none" />
      <path d="M1.74225 0L0 4.0665L4.07775 2.32575L1.74225 0Z" transform="matrix(0.9999996 8.85084E-07 -8.85084E-07 0.9999996 1.127243 24.809265)" id="Shape" fill="#4788C7" fill-rule="evenodd" stroke="none" />
      <path d="M0 2.43825L1.69725 0.741C2.17575 0.2625 2.811 0 3.4875 0C4.164 0 4.8 0.26325 5.27775 0.741C6.26475 1.728 6.26475 3.3345 5.27775 4.3215L3.5805 6.01875L0 2.43825L0 2.43825Z" transform="matrix(0.9999996 8.85084E-07 -8.85084E-07 0.9999996 22.480453 1.4992676)" id="Shape" fill="#B6DCFE" fill-rule="evenodd" stroke="none" />
      <path d="M4.01774 0.75C4.59374 0.75 5.13524 0.97425 5.54324 1.3815C5.95049 1.78875 6.17474 2.33025 6.17474 2.907C6.17474 3.483 5.95049 4.0245 5.54324 4.4325L4.11149 5.86425L1.06049 2.81325L2.49224 1.3815C2.90024 0.97425 3.44174 0.75 4.01774 0.75M4.01775 4.62475e-12C3.27375 3.76834e-12 2.52975 0.2835 1.962 0.85125L-3.23827e-12 2.81325L4.11075 6.924L6.07275 4.962C7.20825 3.8265 7.20825 1.986 6.07275 0.85125L6.07275 0.85125C5.50575 0.2835 4.76175 5.48115e-12 4.01775 4.62475e-12L4.01775 4.62475e-12L4.01775 4.62475e-12Z" transform="matrix(0.9999996 8.85084E-07 -8.85084E-07 0.9999996 21.95021 1.1242676)" id="Shape" fill="#4788C7" fill-rule="evenodd" stroke="none" />
      <g id="Group" transform="matrix(0.9999996 8.85084E-07 -8.85084E-07 0.9999996 4.1992645 4.5592346)">
        <path d="M3.627 19.9215C3.57675 19.8045 3.50775 19.686 3.4125 19.5735C3.17775 19.299 2.84475 19.131 2.4195 19.074C2.26875 18.1132 1.506 17.7075 0.91275 17.586C0.813 16.9297 0.41925 16.5675 0 16.3867L16.3762 0L19.9567 3.5805L3.627 19.9215L3.627 19.9215Z" transform="matrix(0.9999998 -4.2145647E-08 4.2145647E-08 0.9999998 0.753006 0.5302429)" id="Shape" fill="#98CCFD" fill-rule="evenodd" stroke="none" />
        <path d="M17.1292 1.06125L20.1795 4.1115L4.446 19.8547C4.26375 19.6425 3.96225 19.4032 3.486 19.2832C3.255 18.4657 2.61075 18.006 1.98375 17.811C1.86975 17.394 1.64325 17.073 1.35675 16.8427L17.1292 1.06125M17.1292 3.72435e-11L-3.72663e-11 17.1397C-3.72663e-11 17.1397 0.00524998 17.1397 0.0157499 17.1397C0.165 17.1397 1.31475 17.181 1.31475 18.4507C1.31475 18.4507 2.8245 18.4972 2.8245 19.9575C4.326 19.9575 4.11975 21.243 4.11975 21.243L21.2407 4.11225L17.1292 3.72435e-11L17.1292 3.72435e-11L17.1292 3.72435e-11Z" transform="scale(0.99999964 0.99999964)" id="Shape" fill="#4788C7" fill-rule="evenodd" stroke="none" />
      </g>
      <g id="Group" transform="matrix(0.9999996 8.85084E-07 -8.85084E-07 0.9999996 20.42176 2.3077087)">
        <path d="M0 2.62813L2.6285 0L6.20904 3.58104L3.58054 6.20917L0 2.62813Z" transform="matrix(0.9999998 -4.2145647E-08 4.2145647E-08 0.9999998 0.52954865 0.52890015)" id="Shape" fill="#DFF0FE" fill-rule="evenodd" stroke="none" />
        <path d="M3.15826 1.06055L6.20851 4.1108L4.11076 6.20855L1.06051 3.1583L3.15826 1.06055M3.15825 3.05176e-05L-6.86686e-12 3.15828L4.11075 7.26903L7.269 4.11078L3.15825 3.05176e-05L3.15825 3.05176e-05L3.15825 3.05176e-05Z" transform="scale(0.99999964 0.99999964)" id="Shape" fill="#4788C7" fill-rule="evenodd" stroke="none" />
      </g>
    </g>
  </g>
</svg>